<mxfile host="Electron" modified="2024-06-22T07:39:17.092Z" agent="Mozilla/5.0 (Windows NT 10.0; Win64; x64) AppleWebKit/537.36 (KHTML, like Gecko) draw.io/24.6.1 Chrome/124.0.6367.207 Electron/30.0.6 Safari/537.36" etag="01R0vAXbesvBEozaqI4b" version="24.6.1" type="device">
  <diagram name="UserFeatures" id="2Jdr1mqc3b08erRfAOsO">
    <mxGraphModel dx="1434" dy="2005" grid="1" gridSize="10" guides="1" tooltips="1" connect="1" arrows="1" fold="1" page="1" pageScale="1" pageWidth="827" pageHeight="1169" math="0" shadow="0">
      <root>
        <mxCell id="0" />
        <mxCell id="1" parent="0" />
        <mxCell id="TiKquNlS_0E-PFNMdt_M-1" value="" style="rounded=1;whiteSpace=wrap;html=1;fillColor=#f5f5f5;fontColor=#333333;strokeColor=#CCCCCC;shadow=1;fontStyle=0" parent="1" vertex="1">
          <mxGeometry x="45" y="-40" width="800" height="450" as="geometry" />
        </mxCell>
        <mxCell id="TiKquNlS_0E-PFNMdt_M-2" value="Data" style="text;html=1;align=center;verticalAlign=middle;whiteSpace=wrap;rounded=0;fontFamily=JetBrains Mono;fontSize=15;fontStyle=0;fontColor=#000000;" parent="1" vertex="1">
          <mxGeometry x="70" y="-10" width="60" height="30" as="geometry" />
        </mxCell>
        <mxCell id="TiKquNlS_0E-PFNMdt_M-3" value="" style="rounded=1;whiteSpace=wrap;html=1;fillColor=#f5f5f5;fontColor=#333333;strokeColor=#CCCCCC;shadow=1;" parent="1" vertex="1">
          <mxGeometry x="40" y="470" width="810" height="410" as="geometry" />
        </mxCell>
        <mxCell id="TiKquNlS_0E-PFNMdt_M-4" value="Domain" style="text;html=1;align=center;verticalAlign=middle;whiteSpace=wrap;rounded=0;fontSize=15;fontFamily=JetBrains Mono;fontStyle=0" parent="1" vertex="1">
          <mxGeometry x="80" y="500" width="60" height="30" as="geometry" />
        </mxCell>
        <mxCell id="TiKquNlS_0E-PFNMdt_M-5" value="" style="rounded=1;whiteSpace=wrap;html=1;fillColor=#dae8fc;strokeColor=#6c8ebf;shadow=1;" parent="1" vertex="1">
          <mxGeometry x="34.5" y="940" width="810" height="580" as="geometry" />
        </mxCell>
        <mxCell id="Ep0wwms-lPecwg1ruZXp-2" style="edgeStyle=orthogonalEdgeStyle;rounded=0;orthogonalLoop=1;jettySize=auto;html=1;fontFamily=JetBrains Mono;fontSize=12;fontColor=default;dashed=1;" parent="1" source="TiKquNlS_0E-PFNMdt_M-7" target="Ep0wwms-lPecwg1ruZXp-1" edge="1">
          <mxGeometry relative="1" as="geometry" />
        </mxCell>
        <mxCell id="TiKquNlS_0E-PFNMdt_M-7" value="" style="rounded=0;whiteSpace=wrap;html=1;fillColor=#dae8fc;strokeColor=#6c8ebf;gradientColor=#7ea6e0;labelBorderColor=none;" parent="1" vertex="1">
          <mxGeometry x="140" y="1040" width="170" height="300" as="geometry" />
        </mxCell>
        <mxCell id="TiKquNlS_0E-PFNMdt_M-8" value="&lt;h2&gt;&lt;span style=&quot;font-weight: normal;&quot;&gt;&lt;font style=&quot;font-size: 12px;&quot;&gt;Signin&lt;/font&gt;&lt;/span&gt;&lt;/h2&gt;" style="text;html=1;align=left;verticalAlign=middle;whiteSpace=wrap;rounded=0;fontFamily=JetBrains Mono;" parent="1" vertex="1">
          <mxGeometry x="156" y="1050" width="60" height="30" as="geometry" />
        </mxCell>
        <mxCell id="Ep0wwms-lPecwg1ruZXp-4" style="edgeStyle=orthogonalEdgeStyle;rounded=0;orthogonalLoop=1;jettySize=auto;html=1;entryX=0.5;entryY=0;entryDx=0;entryDy=0;fontFamily=JetBrains Mono;fontSize=12;fontColor=default;dashed=1;exitX=0.5;exitY=1;exitDx=0;exitDy=0;" parent="1" source="TiKquNlS_0E-PFNMdt_M-10" target="Ep0wwms-lPecwg1ruZXp-16" edge="1">
          <mxGeometry relative="1" as="geometry" />
        </mxCell>
        <mxCell id="TiKquNlS_0E-PFNMdt_M-10" value="" style="rounded=0;whiteSpace=wrap;html=1;fillColor=#dae8fc;strokeColor=#6c8ebf;gradientColor=#7ea6e0;labelBackgroundColor=none;labelBorderColor=none;textShadow=0;" parent="1" vertex="1">
          <mxGeometry x="360" y="1040" width="170" height="300" as="geometry" />
        </mxCell>
        <mxCell id="TiKquNlS_0E-PFNMdt_M-11" value="&lt;h2&gt;&lt;span style=&quot;font-weight: normal;&quot;&gt;&lt;font style=&quot;font-size: 12px;&quot;&gt;Signup&lt;/font&gt;&lt;/span&gt;&lt;/h2&gt;" style="text;html=1;align=left;verticalAlign=middle;whiteSpace=wrap;rounded=0;fontFamily=JetBrains Mono;" parent="1" vertex="1">
          <mxGeometry x="377" y="1050" width="60" height="30" as="geometry" />
        </mxCell>
        <mxCell id="Ep0wwms-lPecwg1ruZXp-3" style="edgeStyle=orthogonalEdgeStyle;rounded=0;orthogonalLoop=1;jettySize=auto;html=1;entryX=0.5;entryY=0;entryDx=0;entryDy=0;fontFamily=JetBrains Mono;fontSize=12;fontColor=default;dashed=1;" parent="1" source="TiKquNlS_0E-PFNMdt_M-13" target="Ep0wwms-lPecwg1ruZXp-17" edge="1">
          <mxGeometry relative="1" as="geometry" />
        </mxCell>
        <mxCell id="TiKquNlS_0E-PFNMdt_M-13" value="" style="rounded=0;whiteSpace=wrap;html=1;fillColor=#dae8fc;strokeColor=#6c8ebf;gradientColor=#7ea6e0;" parent="1" vertex="1">
          <mxGeometry x="580" y="1040" width="170" height="300" as="geometry" />
        </mxCell>
        <mxCell id="TiKquNlS_0E-PFNMdt_M-12" value="&lt;h2&gt;&lt;span style=&quot;font-weight: normal;&quot;&gt;&lt;font style=&quot;font-size: 12px;&quot;&gt;Restore&lt;/font&gt;&lt;/span&gt;&lt;/h2&gt;" style="text;html=1;align=left;verticalAlign=middle;whiteSpace=wrap;rounded=0;fontFamily=JetBrains Mono;" parent="1" vertex="1">
          <mxGeometry x="597" y="1050" width="60" height="30" as="geometry" />
        </mxCell>
        <mxCell id="9DfdgOMnx2JXQq-zQj-N-11" style="edgeStyle=orthogonalEdgeStyle;rounded=0;orthogonalLoop=1;jettySize=auto;html=1;entryX=0;entryY=0.75;entryDx=0;entryDy=0;exitX=0;exitY=0.25;exitDx=0;exitDy=0;dashed=1;" parent="1" source="TiKquNlS_0E-PFNMdt_M-18" target="9DfdgOMnx2JXQq-zQj-N-1" edge="1">
          <mxGeometry relative="1" as="geometry">
            <Array as="points">
              <mxPoint x="20" y="715" />
              <mxPoint x="20" y="668" />
            </Array>
          </mxGeometry>
        </mxCell>
        <mxCell id="TiKquNlS_0E-PFNMdt_M-18" value="SigninUseCase" style="rounded=1;whiteSpace=wrap;html=1;fontFamily=JetBrains Mono;fillColor=#ffe6cc;strokeColor=#d79b00;" parent="1" vertex="1">
          <mxGeometry x="90" y="700" width="210" height="60" as="geometry" />
        </mxCell>
        <mxCell id="Xrra96TOXTjzkEfH_49A-8" style="edgeStyle=orthogonalEdgeStyle;rounded=0;orthogonalLoop=1;jettySize=auto;html=1;entryX=0.5;entryY=1;entryDx=0;entryDy=0;exitX=0.523;exitY=0.007;exitDx=0;exitDy=0;dashed=1;exitPerimeter=0;" parent="1" source="TiKquNlS_0E-PFNMdt_M-21" target="cpPoo9nmeP6G5IgvbRkb-3" edge="1">
          <mxGeometry relative="1" as="geometry" />
        </mxCell>
        <mxCell id="TiKquNlS_0E-PFNMdt_M-21" value="SignupUseCase" style="rounded=1;whiteSpace=wrap;html=1;fontFamily=JetBrains Mono;fillColor=#ffe6cc;strokeColor=#d79b00;" parent="1" vertex="1">
          <mxGeometry x="340" y="780" width="190" height="60" as="geometry" />
        </mxCell>
        <mxCell id="TiKquNlS_0E-PFNMdt_M-22" value="RestoreUseCase" style="rounded=1;whiteSpace=wrap;html=1;fontFamily=JetBrains Mono;fillColor=#ffe6cc;strokeColor=#d79b00;" parent="1" vertex="1">
          <mxGeometry x="570" y="780" width="210" height="60" as="geometry" />
        </mxCell>
        <mxCell id="TiKquNlS_0E-PFNMdt_M-45" value="Presentation" style="text;html=1;align=left;verticalAlign=middle;whiteSpace=wrap;rounded=0;fontFamily=JetBrains Mono;fontStyle=0;fontSize=15;" parent="1" vertex="1">
          <mxGeometry x="80" y="971" width="60" height="30" as="geometry" />
        </mxCell>
        <mxCell id="9DfdgOMnx2JXQq-zQj-N-9" style="edgeStyle=orthogonalEdgeStyle;rounded=0;orthogonalLoop=1;jettySize=auto;html=1;entryX=1;entryY=0.5;entryDx=0;entryDy=0;dashed=1;exitX=1;exitY=0.65;exitDx=0;exitDy=0;exitPerimeter=0;" parent="1" source="V--bfEOIcdb9W54VowxW-2" target="9DfdgOMnx2JXQq-zQj-N-2" edge="1">
          <mxGeometry relative="1" as="geometry">
            <Array as="points">
              <mxPoint x="320" y="819" />
              <mxPoint x="320" y="582" />
            </Array>
          </mxGeometry>
        </mxCell>
        <mxCell id="NH-753H_gVw1UsVjD-up-2" style="edgeStyle=orthogonalEdgeStyle;rounded=0;orthogonalLoop=1;jettySize=auto;html=1;entryX=0.805;entryY=-0.02;entryDx=0;entryDy=0;dashed=1;entryPerimeter=0;" parent="1" source="V--bfEOIcdb9W54VowxW-2" target="PcXl5GzZmY-POJ2Z22Hb-1" edge="1">
          <mxGeometry relative="1" as="geometry">
            <Array as="points">
              <mxPoint x="330" y="800" />
              <mxPoint x="330" y="510" />
              <mxPoint x="739" y="510" />
            </Array>
          </mxGeometry>
        </mxCell>
        <mxCell id="V--bfEOIcdb9W54VowxW-2" value="IsSignedUseCase" style="rounded=1;whiteSpace=wrap;html=1;fontFamily=JetBrains Mono;fillColor=#ffe6cc;strokeColor=#d79b00;" parent="1" vertex="1">
          <mxGeometry x="90" y="780" width="210" height="60" as="geometry" />
        </mxCell>
        <mxCell id="Xrra96TOXTjzkEfH_49A-7" style="edgeStyle=orthogonalEdgeStyle;rounded=0;orthogonalLoop=1;jettySize=auto;html=1;entryX=0.5;entryY=1;entryDx=0;entryDy=0;dashed=1;" parent="1" source="cpPoo9nmeP6G5IgvbRkb-3" target="rKm1LnI-wZ_JByORVO7e-17" edge="1">
          <mxGeometry relative="1" as="geometry" />
        </mxCell>
        <mxCell id="cpPoo9nmeP6G5IgvbRkb-3" value="SignupRepository&lt;div&gt;Interface&lt;/div&gt;" style="rounded=1;whiteSpace=wrap;html=1;align=center;verticalAlign=middle;fontFamily=JetBrains Mono;fontSize=12;" parent="1" vertex="1">
          <mxGeometry x="373" y="705" width="134" height="50" as="geometry" />
        </mxCell>
        <mxCell id="Xrra96TOXTjzkEfH_49A-5" style="edgeStyle=orthogonalEdgeStyle;rounded=0;orthogonalLoop=1;jettySize=auto;html=1;exitX=0.75;exitY=0;exitDx=0;exitDy=0;dashed=1;entryX=0.25;entryY=1;entryDx=0;entryDy=0;" parent="1" source="cpPoo9nmeP6G5IgvbRkb-12" target="rKm1LnI-wZ_JByORVO7e-23" edge="1">
          <mxGeometry relative="1" as="geometry" />
        </mxCell>
        <mxCell id="cpPoo9nmeP6G5IgvbRkb-12" value="Accounts&lt;div style=&quot;font-size: 12px;&quot;&gt;DataRepository&lt;div style=&quot;font-size: 12px;&quot;&gt;Interface&lt;/div&gt;&lt;/div&gt;" style="rounded=1;whiteSpace=wrap;html=1;align=center;verticalAlign=middle;fontFamily=JetBrains Mono;fontSize=12;fillColor=#e51400;strokeColor=#B20000;fontStyle=0;fontColor=#ffffff;" parent="1" vertex="1">
          <mxGeometry x="135" y="190" width="180" height="60" as="geometry" />
        </mxCell>
        <mxCell id="cpPoo9nmeP6G5IgvbRkb-13" value="" style="rounded=1;whiteSpace=wrap;html=1;align=center;verticalAlign=middle;fontFamily=JetBrains Mono;fontSize=12;fillColor=#d5e8d4;strokeColor=#82b366;shadow=1;" parent="1" vertex="1">
          <mxGeometry x="950" y="-40" width="330" height="680" as="geometry" />
        </mxCell>
        <mxCell id="cpPoo9nmeP6G5IgvbRkb-14" value="Mediator" style="text;html=1;align=left;verticalAlign=middle;whiteSpace=wrap;rounded=0;fontFamily=JetBrains Mono;fontSize=15;fontColor=default;" parent="1" vertex="1">
          <mxGeometry x="990" y="-10" width="100" height="30" as="geometry" />
        </mxCell>
        <mxCell id="cpPoo9nmeP6G5IgvbRkb-15" style="edgeStyle=orthogonalEdgeStyle;rounded=0;orthogonalLoop=1;jettySize=auto;html=1;exitX=0.5;exitY=1;exitDx=0;exitDy=0;fontFamily=JetBrains Mono;fontSize=12;fontColor=default;" parent="1" source="cpPoo9nmeP6G5IgvbRkb-14" target="cpPoo9nmeP6G5IgvbRkb-14" edge="1">
          <mxGeometry relative="1" as="geometry" />
        </mxCell>
        <mxCell id="cpPoo9nmeP6G5IgvbRkb-21" style="edgeStyle=orthogonalEdgeStyle;rounded=0;orthogonalLoop=1;jettySize=auto;html=1;entryX=1;entryY=0.5;entryDx=0;entryDy=0;fontFamily=JetBrains Mono;fontSize=12;fontColor=default;dashed=1;startArrow=none;startFill=0;endArrow=block;endFill=0;exitX=0;exitY=0.5;exitDx=0;exitDy=0;" parent="1" source="cpPoo9nmeP6G5IgvbRkb-17" target="cpPoo9nmeP6G5IgvbRkb-3" edge="1">
          <mxGeometry relative="1" as="geometry">
            <Array as="points">
              <mxPoint x="920" y="155" />
              <mxPoint x="920" y="680" />
              <mxPoint x="530" y="680" />
              <mxPoint x="530" y="730" />
            </Array>
          </mxGeometry>
        </mxCell>
        <mxCell id="cpPoo9nmeP6G5IgvbRkb-22" style="edgeStyle=orthogonalEdgeStyle;rounded=0;orthogonalLoop=1;jettySize=auto;html=1;fontFamily=JetBrains Mono;fontSize=12;fontColor=default;dashed=1;exitX=0;exitY=0.25;exitDx=0;exitDy=0;entryX=1;entryY=0.5;entryDx=0;entryDy=0;" parent="1" source="cpPoo9nmeP6G5IgvbRkb-17" target="cpPoo9nmeP6G5IgvbRkb-12" edge="1">
          <mxGeometry relative="1" as="geometry">
            <Array as="points">
              <mxPoint x="790" y="142" />
              <mxPoint x="790" y="220" />
            </Array>
          </mxGeometry>
        </mxCell>
        <mxCell id="cpPoo9nmeP6G5IgvbRkb-17" value="AdapterSignupRepository&lt;div&gt;Implementation&lt;/div&gt;" style="rounded=1;whiteSpace=wrap;html=1;align=center;verticalAlign=middle;fontFamily=JetBrains Mono;fontSize=12;fillColor=#ffe6cc;strokeColor=#d79b00;" parent="1" vertex="1">
          <mxGeometry x="1020" y="130" width="180" height="50" as="geometry" />
        </mxCell>
        <mxCell id="I05fXIIPCZV4uLUWxblA-4" value="UserDataStorage&lt;div&gt;Interface&lt;br&gt;&lt;/div&gt;" style="rounded=1;whiteSpace=wrap;html=1;fontFamily=JetBrains Mono;glass=0;shadow=0;" parent="1" vertex="1">
          <mxGeometry x="410" y="40" width="180" height="50" as="geometry" />
        </mxCell>
        <mxCell id="qk_Tum-H-MsZn2wndXrb-1" value="&lt;div&gt;SharedPreferences&lt;/div&gt;&lt;div&gt;UserDataStorage&lt;/div&gt;&lt;div&gt;Implementation&lt;/div&gt;" style="rounded=1;whiteSpace=wrap;html=1;fontFamily=JetBrains Mono;glass=0;shadow=0;fillColor=#ffe6cc;strokeColor=#d79b00;" parent="1" vertex="1">
          <mxGeometry x="410" y="110" width="180" height="50" as="geometry" />
        </mxCell>
        <mxCell id="qk_Tum-H-MsZn2wndXrb-3" value="" style="endArrow=block;html=1;rounded=0;entryX=0.5;entryY=1;entryDx=0;entryDy=0;dashed=1;endFill=0;" parent="1" source="qk_Tum-H-MsZn2wndXrb-1" target="I05fXIIPCZV4uLUWxblA-4" edge="1">
          <mxGeometry width="50" height="50" relative="1" as="geometry">
            <mxPoint x="650" y="390" as="sourcePoint" />
            <mxPoint x="700" y="340" as="targetPoint" />
          </mxGeometry>
        </mxCell>
        <mxCell id="sPkliqUJeTGFC_j_BPAK-5" style="edgeStyle=orthogonalEdgeStyle;rounded=0;orthogonalLoop=1;jettySize=auto;html=1;entryX=1;entryY=0.5;entryDx=0;entryDy=0;dashed=1;endArrow=block;endFill=0;" parent="1" source="sPkliqUJeTGFC_j_BPAK-4" target="PcXl5GzZmY-POJ2Z22Hb-1" edge="1">
          <mxGeometry relative="1" as="geometry">
            <Array as="points">
              <mxPoint x="1110" y="305" />
              <mxPoint x="820" y="305" />
              <mxPoint x="820" y="585" />
            </Array>
          </mxGeometry>
        </mxCell>
        <mxCell id="sPkliqUJeTGFC_j_BPAK-6" style="edgeStyle=orthogonalEdgeStyle;rounded=0;orthogonalLoop=1;jettySize=auto;html=1;entryX=1;entryY=0.5;entryDx=0;entryDy=0;dashed=1;" parent="1" source="sPkliqUJeTGFC_j_BPAK-4" target="I05fXIIPCZV4uLUWxblA-4" edge="1">
          <mxGeometry relative="1" as="geometry">
            <Array as="points">
              <mxPoint x="1240" y="240" />
              <mxPoint x="1240" y="65" />
            </Array>
          </mxGeometry>
        </mxCell>
        <UserObject label="Adapter&lt;div&gt;AuthTokenRepository&lt;div&gt;Implementation&lt;/div&gt;&lt;/div&gt;" tooltip="" id="sPkliqUJeTGFC_j_BPAK-4">
          <mxCell style="rounded=1;whiteSpace=wrap;html=1;fontFamily=JetBrains Mono;glass=0;shadow=0;fillColor=#ffe6cc;strokeColor=#d79b00;" parent="1" vertex="1">
            <mxGeometry x="1020" y="210" width="180" height="60" as="geometry" />
          </mxCell>
        </UserObject>
        <mxCell id="rKm1LnI-wZ_JByORVO7e-16" value="&lt;font style=&quot;font-size: 12px;&quot;&gt;SignupData&lt;/font&gt;" style="swimlane;childLayout=stackLayout;horizontal=1;startSize=40;horizontalStack=0;rounded=1;fontSize=14;fontStyle=0;strokeWidth=1;resizeParent=0;resizeLast=1;shadow=0;dashed=0;align=center;arcSize=4;whiteSpace=wrap;html=1;strokeColor=default;verticalAlign=middle;fontFamily=JetBrains Mono;fontColor=default;fillColor=default;" parent="1" vertex="1">
          <mxGeometry x="372" y="556" width="135" height="125" as="geometry">
            <mxRectangle x="385" y="620" width="110" height="50" as="alternateBounds" />
          </mxGeometry>
        </mxCell>
        <mxCell id="rKm1LnI-wZ_JByORVO7e-17" value="&lt;font style=&quot;font-size: 12px;&quot;&gt;+userName&lt;br&gt;+phone&lt;br&gt;+email&lt;/font&gt;&lt;div&gt;&lt;font style=&quot;font-size: 12px;&quot;&gt;+password&lt;/font&gt;&lt;/div&gt;&lt;div&gt;&lt;font style=&quot;font-size: 12px;&quot;&gt;+repeatPassword&lt;/font&gt;&lt;/div&gt;" style="align=left;strokeColor=none;fillColor=none;spacingLeft=4;fontSize=12;verticalAlign=top;resizable=0;rotatable=0;part=1;html=1;rounded=1;shadow=0;strokeWidth=1;arcSize=4;fontFamily=JetBrains Mono;fontColor=default;fontStyle=0;" parent="rKm1LnI-wZ_JByORVO7e-16" vertex="1">
          <mxGeometry y="40" width="135" height="85" as="geometry" />
        </mxCell>
        <mxCell id="rKm1LnI-wZ_JByORVO7e-18" value="&lt;font style=&quot;font-size: 12px;&quot;&gt;SignupDataEntity&lt;/font&gt;" style="swimlane;childLayout=stackLayout;horizontal=1;startSize=50;horizontalStack=0;rounded=1;fontSize=14;fontStyle=0;strokeWidth=1;resizeParent=0;resizeLast=1;shadow=0;dashed=0;align=center;arcSize=4;whiteSpace=wrap;html=1;strokeColor=default;verticalAlign=middle;fontFamily=JetBrains Mono;fontColor=default;fillColor=default;" parent="1" vertex="1">
          <mxGeometry x="80" y="40" width="135" height="120" as="geometry">
            <mxRectangle x="385" y="620" width="110" height="50" as="alternateBounds" />
          </mxGeometry>
        </mxCell>
        <mxCell id="rKm1LnI-wZ_JByORVO7e-19" value="&lt;font style=&quot;font-size: 12px;&quot;&gt;+userName&lt;br&gt;+phone&lt;br&gt;+email&lt;/font&gt;&lt;div&gt;&lt;font style=&quot;font-size: 12px;&quot;&gt;+password&lt;/font&gt;&lt;/div&gt;" style="align=left;strokeColor=none;fillColor=none;spacingLeft=4;fontSize=12;verticalAlign=top;resizable=0;rotatable=0;part=1;html=1;rounded=1;shadow=0;strokeWidth=1;arcSize=4;fontFamily=JetBrains Mono;fontColor=default;fontStyle=0;" parent="rKm1LnI-wZ_JByORVO7e-18" vertex="1">
          <mxGeometry y="50" width="135" height="70" as="geometry" />
        </mxCell>
        <mxCell id="rKm1LnI-wZ_JByORVO7e-22" value="&lt;font style=&quot;font-size: 12px;&quot;&gt;AccountDataEntity&lt;/font&gt;" style="swimlane;childLayout=stackLayout;horizontal=1;startSize=40;horizontalStack=0;rounded=1;fontSize=14;fontStyle=0;strokeWidth=1;resizeParent=0;resizeLast=1;shadow=0;dashed=0;align=center;arcSize=4;whiteSpace=wrap;html=1;strokeColor=default;verticalAlign=middle;fontFamily=JetBrains Mono;fontColor=default;fillColor=default;" parent="1" vertex="1">
          <mxGeometry x="237" y="40" width="135" height="120" as="geometry">
            <mxRectangle x="385" y="620" width="110" height="50" as="alternateBounds" />
          </mxGeometry>
        </mxCell>
        <mxCell id="rKm1LnI-wZ_JByORVO7e-23" value="&lt;div style=&quot;line-height: 110%;&quot;&gt;&lt;font style=&quot;font-size: 12px;&quot;&gt;+id&lt;/font&gt;&lt;/div&gt;&lt;font style=&quot;font-size: 12px;&quot;&gt;+userName&lt;br&gt;+phone&lt;br&gt;+email&lt;/font&gt;&lt;div style=&quot;line-height: 110%;&quot;&gt;&lt;font style=&quot;font-size: 12px;&quot;&gt;+created&lt;/font&gt;&lt;/div&gt;" style="align=left;strokeColor=none;fillColor=none;spacingLeft=4;fontSize=12;verticalAlign=top;resizable=0;rotatable=0;part=1;html=1;rounded=1;shadow=0;strokeWidth=1;arcSize=4;fontFamily=JetBrains Mono;fontColor=default;fontStyle=0;" parent="rKm1LnI-wZ_JByORVO7e-22" vertex="1">
          <mxGeometry y="40" width="135" height="80" as="geometry" />
        </mxCell>
        <mxCell id="9DfdgOMnx2JXQq-zQj-N-1" value="&lt;div&gt;AuthServiceRepository&lt;/div&gt;&lt;div&gt;Interface&lt;/div&gt;" style="rounded=1;whiteSpace=wrap;html=1;align=center;verticalAlign=middle;fontFamily=JetBrains Mono;fontSize=12;" parent="1" vertex="1">
          <mxGeometry x="90" y="630" width="210" height="50" as="geometry" />
        </mxCell>
        <mxCell id="9DfdgOMnx2JXQq-zQj-N-2" value="&lt;div&gt;ProfileRepository&lt;/div&gt;&lt;div&gt;Interface&lt;/div&gt;" style="rounded=1;whiteSpace=wrap;html=1;align=center;verticalAlign=middle;fontFamily=JetBrains Mono;fontSize=12;" parent="1" vertex="1">
          <mxGeometry x="90" y="557" width="210" height="50" as="geometry" />
        </mxCell>
        <mxCell id="9DfdgOMnx2JXQq-zQj-N-6" style="edgeStyle=orthogonalEdgeStyle;rounded=0;orthogonalLoop=1;jettySize=auto;html=1;entryX=0;entryY=0.5;entryDx=0;entryDy=0;dashed=1;endArrow=block;endFill=0;" parent="1" source="9DfdgOMnx2JXQq-zQj-N-3" target="9DfdgOMnx2JXQq-zQj-N-2" edge="1">
          <mxGeometry relative="1" as="geometry">
            <Array as="points">
              <mxPoint x="1115" y="400" />
              <mxPoint x="60" y="400" />
              <mxPoint x="60" y="582" />
            </Array>
          </mxGeometry>
        </mxCell>
        <mxCell id="9DfdgOMnx2JXQq-zQj-N-7" style="edgeStyle=orthogonalEdgeStyle;rounded=0;orthogonalLoop=1;jettySize=auto;html=1;entryX=0;entryY=0.5;entryDx=0;entryDy=0;dashed=1;" parent="1" source="9DfdgOMnx2JXQq-zQj-N-3" target="cpPoo9nmeP6G5IgvbRkb-12" edge="1">
          <mxGeometry relative="1" as="geometry">
            <Array as="points">
              <mxPoint x="90" y="350" />
              <mxPoint x="90" y="220" />
            </Array>
          </mxGeometry>
        </mxCell>
        <UserObject label="Adapter&lt;div&gt;ProfileRepository&lt;div&gt;Implementation&lt;/div&gt;&lt;/div&gt;" tooltip="" id="9DfdgOMnx2JXQq-zQj-N-3">
          <mxCell style="rounded=1;whiteSpace=wrap;html=1;fontFamily=JetBrains Mono;glass=0;shadow=0;fillColor=#ffe6cc;strokeColor=#d79b00;" parent="1" vertex="1">
            <mxGeometry x="1025" y="320" width="180" height="60" as="geometry" />
          </mxCell>
        </UserObject>
        <mxCell id="9DfdgOMnx2JXQq-zQj-N-5" style="edgeStyle=orthogonalEdgeStyle;rounded=0;orthogonalLoop=1;jettySize=auto;html=1;entryX=0;entryY=0.25;entryDx=0;entryDy=0;dashed=1;endArrow=block;endFill=0;" parent="1" source="9DfdgOMnx2JXQq-zQj-N-4" target="9DfdgOMnx2JXQq-zQj-N-1" edge="1">
          <mxGeometry relative="1" as="geometry">
            <Array as="points">
              <mxPoint x="20" y="430" />
              <mxPoint x="20" y="643" />
            </Array>
          </mxGeometry>
        </mxCell>
        <mxCell id="9DfdgOMnx2JXQq-zQj-N-8" style="edgeStyle=orthogonalEdgeStyle;rounded=0;orthogonalLoop=1;jettySize=auto;html=1;entryX=0;entryY=0.25;entryDx=0;entryDy=0;dashed=1;" parent="1" source="9DfdgOMnx2JXQq-zQj-N-4" target="cpPoo9nmeP6G5IgvbRkb-12" edge="1">
          <mxGeometry relative="1" as="geometry">
            <Array as="points">
              <mxPoint x="100" y="440" />
              <mxPoint x="100" y="205" />
            </Array>
          </mxGeometry>
        </mxCell>
        <UserObject label="Adapter&lt;div&gt;AuthServiceRepository&lt;div&gt;Implementation&lt;/div&gt;&lt;/div&gt;" tooltip="" id="9DfdgOMnx2JXQq-zQj-N-4">
          <mxCell style="rounded=1;whiteSpace=wrap;html=1;fontFamily=JetBrains Mono;glass=0;shadow=0;fillColor=#ffe6cc;strokeColor=#d79b00;" parent="1" vertex="1">
            <mxGeometry x="1025" y="410" width="180" height="60" as="geometry" />
          </mxCell>
        </UserObject>
        <mxCell id="9DfdgOMnx2JXQq-zQj-N-17" style="edgeStyle=orthogonalEdgeStyle;rounded=0;orthogonalLoop=1;jettySize=auto;html=1;exitX=0.5;exitY=0;exitDx=0;exitDy=0;flowAnimation=1;" parent="1" source="cpPoo9nmeP6G5IgvbRkb-13" edge="1">
          <mxGeometry relative="1" as="geometry">
            <Array as="points">
              <mxPoint x="1115" y="-70" />
              <mxPoint x="396" y="-70" />
            </Array>
            <mxPoint x="396" y="-41" as="targetPoint" />
          </mxGeometry>
        </mxCell>
        <mxCell id="Xrra96TOXTjzkEfH_49A-2" style="edgeStyle=orthogonalEdgeStyle;rounded=0;orthogonalLoop=1;jettySize=auto;html=1;entryX=1.004;entryY=0.71;entryDx=0;entryDy=0;entryPerimeter=0;flowAnimation=1;" parent="1" target="TiKquNlS_0E-PFNMdt_M-3" edge="1">
          <mxGeometry relative="1" as="geometry">
            <Array as="points">
              <mxPoint x="1120" y="640" />
              <mxPoint x="1120" y="761" />
            </Array>
            <mxPoint x="1120" y="640" as="sourcePoint" />
          </mxGeometry>
        </mxCell>
        <mxCell id="Xrra96TOXTjzkEfH_49A-4" style="edgeStyle=orthogonalEdgeStyle;rounded=0;orthogonalLoop=1;jettySize=auto;html=1;entryX=0.607;entryY=1.057;entryDx=0;entryDy=0;entryPerimeter=0;dashed=1;" parent="1" target="rKm1LnI-wZ_JByORVO7e-19" edge="1">
          <mxGeometry relative="1" as="geometry">
            <mxPoint x="162" y="190" as="sourcePoint" />
          </mxGeometry>
        </mxCell>
        <mxCell id="8l6Sd6XdLeKhESqAuvTe-1" value="RestoreRepository&lt;div&gt;Interface&lt;/div&gt;" style="rounded=1;whiteSpace=wrap;html=1;align=center;verticalAlign=middle;fontFamily=JetBrains Mono;fontSize=12;" parent="1" vertex="1">
          <mxGeometry x="570" y="700" width="210" height="50" as="geometry" />
        </mxCell>
        <mxCell id="8l6Sd6XdLeKhESqAuvTe-3" style="edgeStyle=orthogonalEdgeStyle;rounded=0;orthogonalLoop=1;jettySize=auto;html=1;dashed=1;" parent="1" source="TiKquNlS_0E-PFNMdt_M-22" edge="1">
          <mxGeometry relative="1" as="geometry">
            <mxPoint x="675" y="750" as="targetPoint" />
          </mxGeometry>
        </mxCell>
        <mxCell id="8l6Sd6XdLeKhESqAuvTe-5" style="edgeStyle=orthogonalEdgeStyle;rounded=0;orthogonalLoop=1;jettySize=auto;html=1;entryX=1;entryY=0.5;entryDx=0;entryDy=0;dashed=1;endArrow=block;endFill=0;" parent="1" source="8l6Sd6XdLeKhESqAuvTe-4" target="8l6Sd6XdLeKhESqAuvTe-1" edge="1">
          <mxGeometry relative="1" as="geometry">
            <Array as="points">
              <mxPoint x="880" y="525" />
              <mxPoint x="880" y="725" />
            </Array>
          </mxGeometry>
        </mxCell>
        <mxCell id="8l6Sd6XdLeKhESqAuvTe-6" style="edgeStyle=orthogonalEdgeStyle;rounded=0;orthogonalLoop=1;jettySize=auto;html=1;entryX=0;entryY=0.75;entryDx=0;entryDy=0;dashed=1;" parent="1" source="8l6Sd6XdLeKhESqAuvTe-4" target="cpPoo9nmeP6G5IgvbRkb-12" edge="1">
          <mxGeometry relative="1" as="geometry">
            <Array as="points">
              <mxPoint x="1115" y="480" />
              <mxPoint x="980" y="480" />
              <mxPoint x="980" y="450" />
              <mxPoint x="80" y="450" />
              <mxPoint x="80" y="235" />
            </Array>
          </mxGeometry>
        </mxCell>
        <mxCell id="8l6Sd6XdLeKhESqAuvTe-4" value="AdapterRestoreRepository&lt;div&gt;Implementation&lt;/div&gt;" style="rounded=1;whiteSpace=wrap;html=1;align=center;verticalAlign=middle;fontFamily=JetBrains Mono;fontSize=12;fillColor=#ffe6cc;strokeColor=#d79b00;" parent="1" vertex="1">
          <mxGeometry x="1025" y="500" width="180" height="50" as="geometry" />
        </mxCell>
        <mxCell id="Ep0wwms-lPecwg1ruZXp-5" style="edgeStyle=orthogonalEdgeStyle;rounded=0;orthogonalLoop=1;jettySize=auto;html=1;entryX=0;entryY=0.5;entryDx=0;entryDy=0;fontFamily=JetBrains Mono;fontSize=12;fontColor=default;dashed=1;exitX=0;exitY=0.658;exitDx=0;exitDy=0;exitPerimeter=0;" parent="1" source="Ep0wwms-lPecwg1ruZXp-1" target="TiKquNlS_0E-PFNMdt_M-18" edge="1">
          <mxGeometry relative="1" as="geometry">
            <Array as="points">
              <mxPoint x="20" y="1436" />
              <mxPoint x="20" y="730" />
            </Array>
          </mxGeometry>
        </mxCell>
        <mxCell id="Ep0wwms-lPecwg1ruZXp-6" style="edgeStyle=orthogonalEdgeStyle;rounded=0;orthogonalLoop=1;jettySize=auto;html=1;entryX=0;entryY=0.5;entryDx=0;entryDy=0;fontFamily=JetBrains Mono;fontSize=12;fontColor=default;dashed=1;exitX=0.005;exitY=0.333;exitDx=0;exitDy=0;exitPerimeter=0;" parent="1" source="Ep0wwms-lPecwg1ruZXp-1" target="V--bfEOIcdb9W54VowxW-2" edge="1">
          <mxGeometry relative="1" as="geometry">
            <Array as="points">
              <mxPoint x="60" y="1413" />
              <mxPoint x="60" y="810" />
            </Array>
          </mxGeometry>
        </mxCell>
        <mxCell id="Ep0wwms-lPecwg1ruZXp-8" style="edgeStyle=orthogonalEdgeStyle;rounded=0;orthogonalLoop=1;jettySize=auto;html=1;entryX=1;entryY=0.5;entryDx=0;entryDy=0;fontFamily=JetBrains Mono;fontSize=12;fontColor=default;exitX=1;exitY=0.5;exitDx=0;exitDy=0;dashed=1;" parent="1" source="Ep0wwms-lPecwg1ruZXp-17" target="TiKquNlS_0E-PFNMdt_M-22" edge="1">
          <mxGeometry relative="1" as="geometry">
            <Array as="points">
              <mxPoint x="810" y="1425" />
              <mxPoint x="810" y="810" />
            </Array>
          </mxGeometry>
        </mxCell>
        <mxCell id="Ep0wwms-lPecwg1ruZXp-1" value="Signin&lt;div&gt;ViewModel&lt;/div&gt;" style="rounded=1;whiteSpace=wrap;html=1;fontFamily=JetBrains Mono;fillColor=#ffe6cc;strokeColor=#d79b00;" parent="1" vertex="1">
          <mxGeometry x="160" y="1390" width="130" height="70" as="geometry" />
        </mxCell>
        <mxCell id="Ep0wwms-lPecwg1ruZXp-7" style="edgeStyle=orthogonalEdgeStyle;rounded=0;orthogonalLoop=1;jettySize=auto;html=1;entryX=0.552;entryY=1.05;entryDx=0;entryDy=0;entryPerimeter=0;fontFamily=JetBrains Mono;fontSize=12;fontColor=default;dashed=1;exitX=0.5;exitY=1;exitDx=0;exitDy=0;" parent="1" source="Ep0wwms-lPecwg1ruZXp-16" target="TiKquNlS_0E-PFNMdt_M-21" edge="1">
          <mxGeometry relative="1" as="geometry">
            <Array as="points">
              <mxPoint x="445" y="1490" />
              <mxPoint x="780" y="1490" />
              <mxPoint x="780" y="920" />
              <mxPoint x="446" y="920" />
            </Array>
          </mxGeometry>
        </mxCell>
        <mxCell id="Ep0wwms-lPecwg1ruZXp-16" value="Signup&lt;div&gt;ViewModel&lt;/div&gt;" style="rounded=1;whiteSpace=wrap;html=1;fontFamily=JetBrains Mono;fillColor=#ffe6cc;strokeColor=#d79b00;" parent="1" vertex="1">
          <mxGeometry x="380" y="1390" width="130" height="70" as="geometry" />
        </mxCell>
        <mxCell id="Ep0wwms-lPecwg1ruZXp-17" value="Restore&lt;div&gt;ViewModel&lt;/div&gt;" style="rounded=1;whiteSpace=wrap;html=1;fontFamily=JetBrains Mono;fillColor=#ffe6cc;strokeColor=#d79b00;" parent="1" vertex="1">
          <mxGeometry x="600" y="1390" width="130" height="70" as="geometry" />
        </mxCell>
        <mxCell id="PcXl5GzZmY-POJ2Z22Hb-1" value="AuthTokenRepository&lt;div&gt;Interface&lt;/div&gt;" style="rounded=1;whiteSpace=wrap;html=1;fontFamily=JetBrains Mono;glass=0;shadow=0;" parent="1" vertex="1">
          <mxGeometry x="570" y="560" width="210" height="50" as="geometry" />
        </mxCell>
        <mxCell id="PcXl5GzZmY-POJ2Z22Hb-2" style="edgeStyle=orthogonalEdgeStyle;rounded=0;orthogonalLoop=1;jettySize=auto;html=1;exitX=0.5;exitY=0;exitDx=0;exitDy=0;entryX=0.5;entryY=0;entryDx=0;entryDy=0;" parent="1" source="PcXl5GzZmY-POJ2Z22Hb-1" target="PcXl5GzZmY-POJ2Z22Hb-1" edge="1">
          <mxGeometry relative="1" as="geometry" />
        </mxCell>
        <mxCell id="NH-753H_gVw1UsVjD-up-1" style="edgeStyle=orthogonalEdgeStyle;rounded=0;orthogonalLoop=1;jettySize=auto;html=1;entryX=0.2;entryY=-0.02;entryDx=0;entryDy=0;entryPerimeter=0;dashed=1;" parent="1" source="TiKquNlS_0E-PFNMdt_M-18" target="PcXl5GzZmY-POJ2Z22Hb-1" edge="1">
          <mxGeometry relative="1" as="geometry">
            <Array as="points">
              <mxPoint x="340" y="730" />
              <mxPoint x="340" y="520" />
              <mxPoint x="612" y="520" />
            </Array>
          </mxGeometry>
        </mxCell>
      </root>
    </mxGraphModel>
  </diagram>
</mxfile>
